<svg xmlns="http://www.w3.org/2000/svg" xmlns:xlink="http://www.w3.org/1999/xlink" viewBox="0 0 1921.5 1037.4"><defs><style>.cls-1{stroke-miterlimit:10;fill:url(#linear-gradient);stroke:url(#linear-gradient-2);}</style><linearGradient id="linear-gradient" x1="187.34" y1="916.93" x2="2091.66" y2="-67.13" gradientUnits="userSpaceOnUse"><stop offset="0.01" stop-color="#93278f"/><stop offset="0.1" stop-color="#8c2e93"/><stop offset="0.21" stop-color="#7a409e"/><stop offset="0.35" stop-color="#5c5eb1"/><stop offset="0.5" stop-color="#3288ca"/><stop offset="0.57" stop-color="#1e9cd7"/><stop offset="0.73" stop-color="#1d9ad6"/><stop offset="0.79" stop-color="#1793d1"/><stop offset="0.83" stop-color="#0e88ca"/><stop offset="0.86" stop-color="#0177bf"/><stop offset="0.87" stop-color="#0075be"/><stop offset="0.99" stop-color="#005b97"/></linearGradient><linearGradient id="linear-gradient-2" y1="518.7" x2="1921.5" y2="518.7" gradientUnits="userSpaceOnUse"><stop offset="0.4" stop-color="#db3fff"/><stop offset="0.53" stop-color="#e44deb" stop-opacity="0.76"/><stop offset="0.76" stop-color="#f266ca" stop-opacity="0.36"/><stop offset="0.92" stop-color="#fb75b4" stop-opacity="0.1"/><stop offset="1" stop-color="#ff7bac" stop-opacity="0"/></linearGradient></defs><title>bg</title><g id="Layer_2" data-name="Layer 2"><g id="Layer_1-2" data-name="Layer 1"><path class="cls-1" d="M33.82,1015.4C82.74,988,137.16,970.58,192.59,962.77c25.42-3.58,54.49-8.19,79.94-7.08C312,957.41,355.14,972.86,393.88,981l19.54,4.09c12.47,2.62,25.13,5.24,37.84,4.46,16.09-1,31.28-7.35,46.48-12.7a391.16,391.16,0,0,1,219.79-11.27c23.5,5.65,46.85,13.55,71,13.57,24.9,0,48.92-8.32,73.12-14.16a372.29,372.29,0,0,1,187.07,3.51c21.89,6.15,43.57,14.38,66.28,15.18,27.48,1,54-9,80.56-16a390.63,390.63,0,0,1,232.24,10.65c18.48,6.75,37.15,15,56.81,14.4,15.85-.52,30.84-6.81,45.77-12.16,124.58-44.59,280.8-22.68,390.14,53.74L1921,298s-235-145-448-145S828,1,828,1L.5.5V1036.43A371.34,371.34,0,0,1,33.82,1015.4Z"/></g></g></svg>